<svg width="185.311523" height="35.000000" viewBox="0 0 185.312 35" fill="none" xmlns="http://www.w3.org/2000/svg" xmlns:xlink="http://www.w3.org/1999/xlink">
	<desc>
			Created with Pixso.
	</desc>
	<defs>
		<filter id="filter_56_26651_dd" x="0.201172" y="10.240234" width="160.016113" height="20.000000" filterUnits="userSpaceOnUse" color-interpolation-filters="sRGB">
			<feFlood flood-opacity="0" result="BackgroundImageFix"/>
			<feGaussianBlur in="BackgroundImage" stdDeviation="1.33333"/>
			<feComposite in2="SourceAlpha" operator="in" result="effect_backgroundBlur_1"/>
			<feBlend mode="normal" in="SourceGraphic" in2="effect_backgroundBlur_1" result="shape"/>
		</filter>
	</defs>
	<path id="Vector" d="M179.48 0L179.48 0C179.82 0 180.15 0.01 180.48 0.04C180.59 0.04 180.69 0.05 180.8 0.06C180.94 0.08 181.07 0.09 181.21 0.11C181.28 0.12 181.36 0.13 181.43 0.14L181.45 0.14C181.51 0.15 181.56 0.16 181.62 0.17C181.66 0.18 181.7 0.18 181.74 0.19C181.85 0.21 181.97 0.23 182.08 0.25C182.25 0.29 182.4 0.32 182.56 0.36C182.58 0.37 182.6 0.37 182.62 0.37C182.64 0.38 182.67 0.38 182.69 0.39L182.71 0.4C182.9 0.45 183.1 0.5 183.29 0.56C183.36 0.58 183.43 0.6 183.51 0.62C183.56 0.64 183.62 0.66 183.68 0.68C183.72 0.69 183.76 0.71 183.8 0.72C183.82 0.73 183.83 0.73 183.84 0.74C183.86 0.74 183.87 0.75 183.89 0.75C183.95 0.78 184.02 0.8 184.08 0.83C184.1 0.83 184.11 0.84 184.13 0.84C184.15 0.85 184.18 0.86 184.21 0.87C184.26 0.9 184.31 0.91 184.37 0.94C184.66 1.67 184.89 2.43 185.05 3.22C185.22 4.06 185.31 4.93 185.31 5.82C184.93 11.4 182.21 15.81 177.36 18.25C177.23 18.31 177.09 18.37 176.96 18.43C176.93 18.44 176.9 18.46 176.87 18.47C176.74 18.53 176.61 18.58 176.47 18.64C175.6 18.99 174.68 19.27 173.73 19.44C173.71 19.44 173.71 19.45 173.7 19.45C172.87 19.6 172.02 19.68 171.15 19.68L171.15 19.67C170.91 19.67 170.67 19.66 170.43 19.65C170.4 19.65 170.37 19.65 170.35 19.65C170.29 19.64 170.23 19.64 170.18 19.63C170.14 19.63 170.11 19.63 170.07 19.63C169.96 19.62 169.84 19.61 169.73 19.6C169.63 19.59 169.54 19.58 169.44 19.56C169.42 19.56 169.4 19.56 169.37 19.56C169.27 19.54 169.16 19.53 169.05 19.51C168.81 19.48 168.58 19.44 168.35 19.39C168.24 19.37 168.12 19.34 168.01 19.32C167.96 19.31 167.9 19.29 167.84 19.28C167.79 19.17 167.73 19.05 167.67 18.94C167.67 18.93 167.65 18.92 167.65 18.91C167.59 18.78 167.52 18.64 167.46 18.49C167.46 18.48 167.44 18.47 167.44 18.45C167.38 18.32 167.33 18.19 167.27 18.06C167.27 18.05 167.27 18.04 167.26 18.03C166.96 17.3 166.74 16.54 166.58 15.75C166.58 15.74 166.58 15.72 166.56 15.7C166.54 15.66 166.54 15.62 166.54 15.58C166.52 15.52 166.51 15.46 166.5 15.4C166.49 15.35 166.49 15.3 166.48 15.26C166.47 15.2 166.46 15.14 166.45 15.08C166.45 15.04 166.44 15 166.44 14.96C166.42 14.89 166.42 14.83 166.41 14.76C166.41 14.73 166.41 14.7 166.39 14.67C166.38 14.59 166.37 14.51 166.37 14.43L166.37 14.41C166.33 13.99 166.31 13.57 166.31 13.15C166.31 12.26 166.4 11.39 166.57 10.55C166.57 10.52 166.58 10.49 166.59 10.46C166.59 10.43 166.6 10.41 166.6 10.39C166.6 10.35 166.62 10.32 166.62 10.29C166.64 10.25 166.65 10.2 166.65 10.16C166.67 10.1 166.68 10.04 166.7 9.99C166.71 9.95 166.72 9.9 166.73 9.86C166.73 9.85 166.73 9.83 166.74 9.82C166.77 9.73 166.79 9.64 166.81 9.56C166.83 9.51 166.84 9.46 166.86 9.41C166.87 9.36 166.89 9.31 166.9 9.26C166.9 9.25 166.92 9.23 166.92 9.21C166.95 9.12 166.97 9.03 167 8.95C167.02 8.91 167.03 8.87 167.04 8.84C167.11 8.65 167.18 8.46 167.25 8.27L167.25 8.27C167.27 8.24 167.28 8.21 167.29 8.19C167.46 7.76 167.66 7.35 167.87 6.94C167.95 6.8 168.02 6.67 168.1 6.53C169.17 4.71 170.66 3.16 172.44 2.04C172.56 1.96 172.67 1.89 172.79 1.82C172.81 1.81 172.84 1.79 172.86 1.78C172.91 1.75 172.96 1.72 173.01 1.69C173.09 1.65 173.16 1.61 173.24 1.56C173.26 1.56 173.27 1.55 173.29 1.54C173.4 1.48 173.52 1.42 173.64 1.36C173.67 1.35 173.69 1.33 173.71 1.32C173.75 1.31 173.78 1.29 173.81 1.28C173.91 1.23 174.01 1.18 174.11 1.14C174.13 1.13 174.15 1.12 174.17 1.11C174.29 1.06 174.41 1.01 174.53 0.96C176.06 0.34 177.73 0 179.47 0L179.48 0ZM161.97 7.57C163.59 7.57 164.94 8.92 164.94 10.54C164.94 12.17 163.59 13.51 161.97 13.51C160.34 13.51 159 12.17 159 10.54C159 8.92 160.34 7.57 161.97 7.57ZM184.04 14.88C184.85 16.58 185.3 18.49 185.3 20.49C185.3 21.38 185.21 22.25 185.04 23.09C184.88 23.88 184.65 24.64 184.36 25.37C184.28 25.41 184.2 25.44 184.12 25.47C184.03 25.5 183.95 25.53 183.86 25.56C183.86 25.57 183.85 25.57 183.84 25.57C183.82 25.57 183.81 25.58 183.79 25.58C183.72 25.61 183.64 25.64 183.56 25.66C183.54 25.67 183.52 25.68 183.5 25.68C183.45 25.7 183.39 25.72 183.34 25.73C183.32 25.74 183.3 25.74 183.28 25.75C183.1 25.8 182.92 25.85 182.75 25.9C182.73 25.91 182.71 25.91 182.69 25.91C182.67 25.92 182.64 25.93 182.62 25.93C182.54 25.95 182.47 25.97 182.39 25.98C182.29 26.01 182.19 26.03 182.08 26.05C181.29 26.21 180.48 26.3 179.65 26.31L179.48 26.31C179.38 26.31 179.28 26.31 179.17 26.3L179.09 26.3C179.01 26.3 178.93 26.29 178.86 26.29C178.83 26.29 178.8 26.28 178.77 26.28C178.68 26.28 178.59 26.27 178.5 26.27L178.47 26.27C178.37 26.26 178.27 26.25 178.17 26.24C178.14 26.23 178.11 26.23 178.08 26.23C178 26.22 177.93 26.21 177.85 26.21C177.83 26.2 177.8 26.2 177.78 26.2C177.7 26.18 177.62 26.18 177.54 26.16C177.51 26.16 177.49 26.16 177.46 26.15C177.37 26.13 177.27 26.12 177.18 26.1C177.15 26.1 177.12 26.09 177.1 26.09C177.03 26.08 176.96 26.06 176.89 26.05C176.85 26.04 176.81 26.03 176.78 26.02C176.71 26.01 176.64 25.99 176.57 25.98C176.54 25.97 176.52 25.97 176.5 25.96C176.4 25.94 176.31 25.91 176.21 25.89C176.19 25.88 176.17 25.88 176.15 25.88C176.09 25.86 176.02 25.84 175.95 25.82C175.81 25.78 175.67 25.74 175.53 25.7C175.51 25.69 175.49 25.68 175.47 25.68C175.35 25.64 175.22 25.59 175.1 25.55C175.07 25.54 175.05 25.53 175.02 25.52C174.88 25.47 174.75 25.42 174.62 25.37C174.59 25.36 174.56 25.35 174.53 25.34C174.42 25.29 174.3 25.24 174.19 25.19C174.16 25.18 174.14 25.17 174.12 25.16C173.99 25.1 173.86 25.04 173.73 24.98C173.7 24.96 173.68 24.95 173.65 24.93C173.53 24.88 173.41 24.81 173.29 24.75C173.28 24.75 173.27 24.74 173.26 24.73C173.13 24.66 173 24.59 172.88 24.52C172.85 24.5 172.82 24.49 172.8 24.47C172.68 24.4 172.56 24.33 172.44 24.25L172.44 24.24C172.31 24.16 172.18 24.08 172.06 24C172.04 23.98 172.02 23.97 172 23.95C171.89 23.87 171.77 23.79 171.65 23.7C171.65 23.7 171.65 23.7 171.64 23.7C171.52 23.61 171.4 23.52 171.28 23.42C171.27 23.41 171.25 23.39 171.23 23.38C171 23.19 170.77 23 170.55 22.79C170.54 22.78 170.52 22.76 170.5 22.75C170.29 22.55 170.08 22.34 169.87 22.12C169.86 22.1 169.84 22.08 169.83 22.07C169.62 21.85 169.43 21.62 169.24 21.39C169.23 21.37 169.21 21.36 169.2 21.34C169.11 21.22 169.01 21.1 168.92 20.98C168.83 20.86 168.75 20.74 168.66 20.62C168.65 20.6 168.64 20.58 168.63 20.57C168.54 20.44 168.46 20.32 168.38 20.19C168.38 20.18 168.36 20.17 168.36 20.17C168.28 20.04 168.21 19.92 168.13 19.79C168.13 19.78 168.12 19.77 168.11 19.76C168.04 19.63 167.96 19.49 167.89 19.35C167.89 19.35 167.89 19.34 167.87 19.33C167.85 19.31 167.85 19.29 167.84 19.27L167.86 19.28C167.9 19.3 167.94 19.32 167.99 19.33C168.08 19.37 168.16 19.4 168.25 19.43C168.27 19.43 168.28 19.44 168.29 19.44C168.31 19.45 168.33 19.45 168.34 19.46C168.41 19.48 168.47 19.51 168.54 19.53C168.57 19.54 168.59 19.54 168.61 19.55C168.69 19.58 168.77 19.6 168.85 19.62C168.88 19.63 168.91 19.64 168.94 19.65C169.01 19.67 169.09 19.7 169.17 19.72C169.19 19.72 169.22 19.73 169.25 19.74C169.33 19.76 169.41 19.78 169.49 19.8C169.51 19.81 169.54 19.82 169.57 19.82C169.65 19.84 169.73 19.86 169.81 19.88C169.92 19.9 170.03 19.93 170.14 19.95C170.37 20 170.61 20.04 170.84 20.07C170.95 20.09 171.06 20.1 171.17 20.12C171.19 20.13 171.22 20.13 171.24 20.13C171.33 20.14 171.43 20.15 171.52 20.16C171.64 20.17 171.75 20.18 171.87 20.19C171.9 20.19 171.94 20.19 171.97 20.19C172.03 20.2 172.08 20.2 172.14 20.21C172.17 20.21 172.2 20.21 172.22 20.21C172.46 20.22 172.7 20.23 172.94 20.23L172.94 20.24C173.81 20.24 174.67 20.16 175.5 20.01C175.51 20.01 175.51 20 175.52 20C176.47 19.83 177.39 19.55 178.27 19.2C178.4 19.14 178.53 19.09 178.66 19.03C178.69 19.02 178.72 19.01 178.75 18.99C178.89 18.93 179.02 18.87 179.15 18.8C181.06 17.87 182.73 16.52 184.04 14.88L184.04 14.88Z" fill="#1B2124" fill-opacity="1.000000" fill-rule="nonzero"/>
	<g filter="url(#filter_56_26651_dd)">
		<path id="StudentsHunt" d="M43.32 28.77Q44.41 29.24 45.69 29.24Q46 29.24 46.31 29.2Q46.85 29.13 47.38 28.95Q48.21 28.66 48.84 28.18Q49.41 27.76 49.77 27.27L49.77 29L52.24 29L52.24 11.24L49.77 11.24L49.77 17.95Q49.45 17.58 49 17.25Q48.3 16.73 47.43 16.43Q47.07 16.31 46.7 16.24Q46.17 16.13 45.62 16.13Q44.4 16.13 43.36 16.57Q42.95 16.74 42.57 16.98Q42.15 17.25 41.78 17.58Q40.98 18.3 40.45 19.31Q39.67 20.79 39.67 22.68Q39.67 24.55 40.44 26.01Q40.45 26.03 40.46 26.05Q40.99 27.05 41.78 27.76Q42.16 28.11 42.6 28.39Q42.95 28.6 43.32 28.77ZM3.89 28.42Q5.47 29.24 7.53 29.24Q9.43 29.24 10.79 28.6Q11.83 28.12 12.5 27.33Q12.73 27.08 12.91 26.79Q12.96 26.71 13.01 26.62Q13.65 25.5 13.65 24Q13.65 23.44 13.49 22.93Q13.41 22.65 13.28 22.4Q12.91 21.65 12.19 21.06Q11.47 20.45 10.44 20.01Q9.41 19.56 8.08 19.27Q7.15 19.08 6.48 18.83Q5.8 18.58 5.4 18.25Q5.04 17.96 4.85 17.57Q4.83 17.54 4.82 17.51Q4.81 17.51 4.81 17.5Q4.63 17.08 4.63 16.58Q4.63 16.13 4.8 15.75Q4.89 15.55 5.02 15.38Q5.04 15.36 5.05 15.34Q5.45 14.85 6.11 14.57Q6.81 14.28 7.75 14.28Q8.52 14.28 9.2 14.53Q9.6 14.68 9.97 14.91Q10.96 15.53 11.68 16.71L13.51 14.91Q13.04 14.11 12.38 13.52Q11.86 13.05 11.22 12.71Q9.76 11.96 7.82 11.96Q6.19 11.96 4.88 12.57Q3.72 13.11 2.98 14Q2.89 14.11 2.8 14.24Q2.52 14.63 2.34 15.06Q2.03 15.8 2.03 16.66Q2.03 17.69 2.34 18.52Q2.44 18.77 2.56 19Q2.85 19.54 3.31 20Q3.96 20.65 4.92 21.08Q5.88 21.51 7.17 21.77Q7.99 21.92 8.61 22.12Q9.24 22.32 9.7 22.58Q10.17 22.85 10.47 23.16Q10.7 23.4 10.84 23.69Q10.88 23.77 10.91 23.86Q10.92 23.88 10.93 23.91Q11.06 24.27 11.06 24.68Q11.06 24.96 10.98 25.21Q10.87 25.54 10.62 25.83Q10.2 26.33 9.45 26.62Q8.71 26.91 7.79 26.91Q6.31 26.91 5.23 26.26Q4.15 25.61 2.97 23.93L1.2 25.97Q2.27 27.53 3.76 28.35Q3.83 28.39 3.89 28.42ZM105.81 12.2L105.81 29L108.4 29L108.4 21.86L116.78 21.86L116.78 29L119.37 29L119.37 12.2L116.78 12.2L116.78 19.37L108.4 19.37L108.4 12.2L105.81 12.2ZM18.26 18.79L18.26 29L20.73 29L20.73 18.79L23.66 18.79L23.66 16.4L20.73 16.4L20.73 13.18L18.26 13.18L18.26 16.4L15.64 16.4L15.64 18.79L18.26 18.79ZM85.55 18.79L85.55 29L88.03 29L88.03 18.79L90.96 18.79L90.96 16.4L88.03 16.4L88.03 13.18L85.55 13.18L85.55 16.4L82.94 16.4L82.94 18.79L85.55 18.79ZM153.81 18.79L153.81 29L156.28 29L156.28 18.79L159.21 18.79L159.21 16.4L156.28 16.4L156.28 13.18L153.81 13.18L153.81 16.4L151.2 16.4L151.2 18.79L153.81 18.79ZM58.17 28.45Q59.64 29.24 61.53 29.24Q62.42 29.24 63.34 28.98Q64.26 28.73 65.09 28.3Q65.92 27.86 66.5 27.29L65.25 25.54Q64.32 26.35 63.51 26.67Q62.71 26.98 61.77 26.98Q60.45 26.98 59.44 26.45Q58.88 26.16 58.47 25.73Q58.13 25.39 57.88 24.95Q57.47 24.22 57.37 23.28L67 23.28L67.02 22.23Q67.05 20.91 66.63 19.8Q66.27 18.83 65.64 18.09Q65.54 17.97 65.43 17.86Q65.16 17.58 64.87 17.34Q64.29 16.88 63.59 16.57Q63.39 16.48 63.19 16.41Q62.31 16.1 61.32 16.1Q59.92 16.1 58.73 16.6Q57.89 16.95 57.21 17.51Q56.94 17.73 56.69 17.99Q56.61 18.08 56.54 18.17Q55.8 19.01 55.36 20.12Q54.88 21.34 54.88 22.83Q54.88 24.5 55.56 25.83Q55.64 25.99 55.73 26.14Q56.08 26.72 56.53 27.2Q57.2 27.91 58.09 28.41Q58.13 28.43 58.17 28.45ZM57.46 21.31Q57.57 20.77 57.78 20.32Q58.06 19.75 58.5 19.34Q58.78 19.07 59.13 18.88Q60.02 18.39 61.32 18.39Q61.89 18.39 62.4 18.57Q62.62 18.64 62.82 18.75Q63.2 18.94 63.51 19.22Q63.77 19.45 63.98 19.73Q64.15 19.96 64.27 20.22Q64.46 20.65 64.51 21.15L64.51 21.31L57.46 21.31ZM69.72 16.4L69.72 29L72.19 29L72.19 21.36Q72.19 20.91 72.32 20.5Q72.37 20.35 72.44 20.2Q72.55 19.97 72.69 19.76Q72.88 19.48 73.13 19.25Q73.2 19.19 73.27 19.13Q73.67 18.81 74.17 18.62Q74.78 18.39 75.5 18.39Q76.39 18.34 76.99 18.66Q77.14 18.74 77.26 18.85Q77.66 19.16 77.87 19.7Q78.16 20.41 78.16 21.48L78.16 29L80.64 29L80.64 21.31Q80.64 19.56 80.16 18.41Q79.78 17.51 79.12 16.97Q78.93 16.82 78.72 16.7Q77.75 16.13 76.31 16.13Q76.08 16.13 75.84 16.16Q75.08 16.24 74.34 16.58Q73.47 16.98 72.81 17.61Q72.75 17.67 72.69 17.73Q72.4 18.02 72.19 18.34L72.19 16.4L69.72 16.4ZM95.03 28.68Q96.3 29.24 97.89 29.24Q99.16 29.24 100.2 28.75Q101.04 28.36 101.6 27.72Q101.73 27.58 101.84 27.42Q102.11 27.05 102.26 26.63Q102.45 26.1 102.45 25.49Q102.45 24.75 102.26 24.15Q102.2 23.96 102.11 23.78Q101.91 23.4 101.58 23.09Q101.13 22.61 100.35 22.24Q99.57 21.86 98.37 21.55Q97.55 21.36 97.03 21.15Q96.5 20.93 96.23 20.74Q96.11 20.64 96.01 20.51Q95.92 20.4 95.86 20.27Q95.82 20.18 95.79 20.09Q95.72 19.9 95.71 19.68Q95.71 19.32 95.85 19.03Q95.89 18.94 95.95 18.86Q96.08 18.69 96.27 18.55Q96.55 18.36 96.96 18.27Q97.37 18.17 97.87 18.17Q98.32 18.17 98.87 18.37Q99.43 18.55 99.97 18.91Q100.13 19.01 100.28 19.12Q100.64 19.39 100.96 19.71L102.38 18.15Q101.88 17.52 101.13 17.07Q101.12 17.06 101.1 17.05Q100.37 16.6 99.51 16.37Q98.87 16.2 98.23 16.15Q97.99 16.13 97.75 16.13Q96.47 16.13 95.46 16.6Q94.58 17 94.01 17.66Q93.92 17.77 93.83 17.89Q93.6 18.2 93.46 18.56Q93.23 19.11 93.23 19.75Q93.23 20.41 93.4 20.94Q93.44 21.08 93.5 21.22Q93.66 21.6 93.93 21.94Q94.41 22.51 95.3 22.97Q96.19 23.43 97.58 23.79Q98.4 24 98.91 24.21Q99.43 24.41 99.67 24.58Q99.87 24.75 99.99 24.97Q100.13 25.24 100.13 25.58Q100.13 25.92 100 26.2Q99.99 26.22 99.98 26.25Q99.94 26.32 99.9 26.39Q99.77 26.6 99.56 26.76Q99.28 26.98 98.91 27.09Q98.54 27.2 98.11 27.2Q97.03 27.2 96.17 26.83Q95.32 26.45 94.61 25.61L92.92 27.05Q93.3 27.54 93.78 27.92Q94.34 28.38 95.03 28.68ZM137.97 16.4L137.97 29L140.44 29L140.44 21.36Q140.44 20.91 140.58 20.5Q140.63 20.35 140.7 20.2Q140.8 19.97 140.95 19.76Q141.14 19.48 141.39 19.25Q141.46 19.19 141.53 19.13Q141.93 18.81 142.43 18.62Q143.03 18.39 143.75 18.39Q144.64 18.34 145.24 18.66Q145.39 18.74 145.52 18.85Q145.91 19.16 146.13 19.7Q146.42 20.41 146.42 21.48L146.42 29L148.89 29L148.89 21.31Q148.89 19.56 148.41 18.41Q148.04 17.51 147.37 16.97Q147.19 16.82 146.97 16.7Q146.01 16.13 144.57 16.13Q144.33 16.13 144.1 16.16Q143.34 16.24 142.6 16.58Q141.72 16.98 141.06 17.61Q141 17.67 140.95 17.73Q140.66 18.02 140.44 18.34L140.44 16.4L137.97 16.4ZM28.13 28.7Q29.08 29.24 30.33 29.24Q31.21 29.24 31.99 28.96Q32.17 28.9 32.34 28.82Q33.02 28.52 33.56 28.06Q33.78 27.88 33.97 27.68Q34.28 27.35 34.51 26.99L34.51 29L36.98 29L36.98 16.4L34.51 16.4L34.51 23.98Q34.51 24.65 34.27 25.22Q34.27 25.22 34.27 25.23Q34.06 25.71 33.73 26.08Q33.67 26.15 33.6 26.21Q33.58 26.23 33.56 26.25Q33.16 26.63 32.61 26.84Q32.03 27.07 31.34 27.07Q30.41 27.07 29.76 26.65Q29.43 26.44 29.17 26.12Q28.39 25.16 28.39 23.5L28.39 16.4L25.92 16.4L25.92 24.17Q25.92 25.73 26.45 26.86Q26.82 27.64 27.41 28.17Q27.68 28.42 27.99 28.61Q28.06 28.66 28.13 28.7ZM125.67 28.7Q126.62 29.24 127.87 29.24Q128.75 29.24 129.52 28.96Q129.7 28.9 129.88 28.82Q130.56 28.52 131.1 28.06Q131.31 27.88 131.5 27.68Q131.81 27.35 132.04 26.99L132.04 29L134.51 29L134.51 16.4L132.04 16.4L132.04 23.98Q132.04 24.65 131.81 25.22L131.8 25.23Q131.6 25.71 131.27 26.08Q131.21 26.15 131.14 26.21Q131.12 26.23 131.1 26.25Q130.7 26.63 130.14 26.84Q129.57 27.07 128.88 27.07Q127.95 27.07 127.3 26.65Q126.97 26.44 126.7 26.12Q125.92 25.16 125.92 23.5L125.92 16.4L123.45 16.4L123.45 24.17Q123.45 25.73 123.99 26.86Q124.36 27.64 124.95 28.17Q125.21 28.42 125.53 28.61Q125.6 28.66 125.67 28.7ZM47.58 26.77Q46.88 27.1 46.03 27.1Q45.2 27.1 44.52 26.79Q44.27 26.68 44.03 26.52Q43.83 26.38 43.64 26.22Q43.05 25.71 42.68 24.95Q42.19 23.96 42.19 22.68Q42.19 21.41 42.68 20.42Q43.05 19.66 43.64 19.15Q43.83 18.98 44.03 18.85Q44.28 18.68 44.54 18.57Q45.22 18.27 46.03 18.27Q46.87 18.27 47.56 18.59Q47.8 18.7 48.02 18.85Q48.24 19 48.44 19.17Q49.01 19.68 49.38 20.42Q49.87 21.41 49.87 22.68Q49.87 23.96 49.38 24.95Q49.01 25.69 48.44 26.19Q48.24 26.37 48.02 26.52Q47.81 26.66 47.58 26.77Z" fill="#1B2124" fill-opacity="1.000000" fill-rule="evenodd"/>
		<path id="StudentsHunt" d="M7.53 29.24Q5.47 29.24 3.89 28.42Q2.32 27.6 1.2 25.97L2.97 23.93Q4.15 25.61 5.23 26.26Q6.31 26.91 7.79 26.91Q8.71 26.91 9.45 26.62Q10.2 26.33 10.62 25.83Q11.06 25.32 11.06 24.68Q11.06 24.24 10.91 23.86Q10.77 23.48 10.47 23.16Q10.17 22.85 9.7 22.58Q9.24 22.32 8.61 22.12Q7.99 21.92 7.17 21.77Q5.88 21.51 4.92 21.08Q3.96 20.65 3.31 20Q2.66 19.34 2.34 18.52Q2.03 17.69 2.03 16.66Q2.03 15.29 2.8 14.24Q3.57 13.18 4.88 12.57Q6.19 11.96 7.82 11.96Q9.76 11.96 11.22 12.71Q12.67 13.47 13.51 14.91L11.68 16.71Q10.96 15.53 9.97 14.91Q8.97 14.28 7.75 14.28Q6.81 14.28 6.11 14.57Q5.42 14.86 5.02 15.38Q4.63 15.89 4.63 16.58Q4.63 17.09 4.82 17.51Q5.01 17.93 5.4 18.25Q5.8 18.58 6.48 18.83Q7.15 19.08 8.08 19.27Q9.41 19.56 10.44 20.01Q11.47 20.45 12.19 21.06Q12.91 21.65 13.28 22.4Q13.65 23.14 13.65 24Q13.65 25.61 12.91 26.79Q12.16 27.96 10.79 28.6Q9.43 29.24 7.53 29.24ZM18.26 29L18.26 13.18L20.73 13.18L20.73 29L18.26 29ZM15.64 18.79L15.64 16.4L23.66 16.4L23.66 18.79L15.64 18.79ZM30.33 29.24Q28.99 29.24 27.99 28.61Q26.99 27.99 26.45 26.86Q25.92 25.73 25.92 24.17L25.92 16.4L28.39 16.4L28.39 23.5Q28.39 25.16 29.17 26.12Q29.95 27.07 31.34 27.07Q32.03 27.07 32.61 26.84Q33.19 26.62 33.6 26.21Q34.02 25.8 34.27 25.23Q34.51 24.65 34.51 23.98L34.51 16.4L36.98 16.4L36.98 29L34.51 29L34.51 26.35L34.94 26.07Q34.65 26.96 33.97 27.68Q33.28 28.4 32.34 28.82Q31.41 29.24 30.33 29.24ZM45.69 29.24Q43.96 29.24 42.6 28.39Q41.25 27.53 40.46 26.05Q39.67 24.58 39.67 22.68Q39.67 20.79 40.45 19.31Q41.23 17.83 42.57 16.98Q43.92 16.13 45.62 16.13Q46.55 16.13 47.43 16.43Q48.3 16.73 49 17.25Q49.7 17.76 50.09 18.38Q50.49 18.99 50.49 19.61L49.77 19.66L49.77 11.24L52.24 11.24L52.24 29L49.77 29L49.77 26L50.25 26Q50.25 26.57 49.86 27.14Q49.48 27.7 48.84 28.18Q48.21 28.66 47.38 28.95Q46.55 29.24 45.69 29.24ZM46.03 27.1Q47.16 27.1 48.02 26.52Q48.88 25.95 49.38 24.95Q49.87 23.96 49.87 22.68Q49.87 21.41 49.38 20.42Q48.88 19.42 48.02 18.85Q47.16 18.27 46.03 18.27Q44.9 18.27 44.03 18.85Q43.17 19.42 42.68 20.42Q42.19 21.41 42.19 22.68Q42.19 23.96 42.68 24.95Q43.17 25.95 44.03 26.52Q44.9 27.1 46.03 27.1ZM61.53 29.24Q59.59 29.24 58.09 28.41Q56.59 27.58 55.73 26.14Q54.88 24.7 54.88 22.83Q54.88 21.34 55.36 20.12Q55.84 18.89 56.69 17.99Q57.54 17.09 58.73 16.6Q59.92 16.1 61.32 16.1Q62.54 16.1 63.59 16.57Q64.65 17.04 65.43 17.86Q66.21 18.68 66.63 19.8Q67.05 20.91 67.02 22.23L67 23.28L56.71 23.28L56.16 21.31L64.87 21.31L64.51 21.72L64.51 21.15Q64.43 20.35 63.98 19.73Q63.52 19.1 62.82 18.75Q62.13 18.39 61.32 18.39Q60.02 18.39 59.13 18.88Q58.24 19.37 57.78 20.32Q57.33 21.27 57.33 22.66Q57.33 23.98 57.88 24.95Q58.43 25.92 59.44 26.45Q60.45 26.98 61.77 26.98Q62.71 26.98 63.51 26.67Q64.32 26.35 65.25 25.54L66.5 27.29Q65.92 27.86 65.09 28.3Q64.26 28.73 63.34 28.98Q62.42 29.24 61.53 29.24ZM69.72 29L69.72 16.4L72.19 16.4L72.19 18.99L71.75 19.27Q71.99 18.44 72.69 17.73Q73.39 17.02 74.34 16.58Q75.31 16.13 76.31 16.13Q77.75 16.13 78.72 16.7Q79.68 17.26 80.16 18.41Q80.64 19.56 80.64 21.31L80.64 29L78.16 29L78.16 21.48Q78.16 20.41 77.87 19.7Q77.58 18.99 76.99 18.66Q76.39 18.34 75.5 18.39Q74.78 18.39 74.17 18.62Q73.58 18.84 73.13 19.25Q72.69 19.66 72.44 20.2Q72.19 20.74 72.19 21.36L72.19 29L70.96 29Q70.65 29 70.34 29Q70.03 29 69.72 29ZM85.55 29L85.55 13.18L88.03 13.18L88.03 29L85.55 29ZM82.94 18.79L82.94 16.4L90.96 16.4L90.96 18.79L82.94 18.79ZM97.89 29.24Q96.3 29.24 95.03 28.68Q93.76 28.13 92.92 27.05L94.61 25.61Q95.32 26.45 96.17 26.83Q97.03 27.2 98.11 27.2Q98.54 27.2 98.91 27.09Q99.28 26.98 99.56 26.76Q99.83 26.55 99.98 26.25Q100.13 25.95 100.13 25.58Q100.13 24.96 99.67 24.58Q99.43 24.41 98.91 24.21Q98.4 24 97.58 23.79Q96.19 23.43 95.3 22.97Q94.41 22.51 93.93 21.94Q93.57 21.48 93.4 20.94Q93.23 20.41 93.23 19.75Q93.23 18.7 93.83 17.89Q94.44 17.07 95.46 16.6Q96.47 16.13 97.75 16.13Q98.64 16.13 99.51 16.37Q100.39 16.61 101.13 17.07Q101.88 17.52 102.38 18.15L100.96 19.71Q100.51 19.25 99.97 18.91Q99.43 18.55 98.87 18.37Q98.32 18.17 97.87 18.17Q97.37 18.17 96.96 18.27Q96.55 18.36 96.27 18.55Q95.99 18.75 95.85 19.03Q95.71 19.32 95.71 19.68Q95.73 20 95.86 20.27Q95.99 20.55 96.23 20.74Q96.5 20.93 97.03 21.15Q97.55 21.36 98.37 21.55Q99.57 21.86 100.35 22.24Q101.13 22.61 101.58 23.09Q102.07 23.55 102.26 24.15Q102.45 24.75 102.45 25.49Q102.45 26.57 101.84 27.42Q101.23 28.27 100.2 28.75Q99.16 29.24 97.89 29.24ZM116.78 29L116.78 12.2L119.37 12.2L119.37 29L116.78 29ZM105.81 29L105.81 12.2L108.4 12.2L108.4 29L105.81 29ZM106.94 21.86L106.94 19.37L117.93 19.37L117.93 21.86L106.94 21.86ZM127.87 29.24Q126.52 29.24 125.53 28.61Q124.53 27.99 123.99 26.86Q123.45 25.73 123.45 24.17L123.45 16.4L125.92 16.4L125.92 23.5Q125.92 25.16 126.7 26.12Q127.48 27.07 128.88 27.07Q129.57 27.07 130.14 26.84Q130.72 26.62 131.14 26.21Q131.56 25.8 131.8 25.23Q132.04 24.65 132.04 23.98L132.04 16.4L134.51 16.4L134.51 29L132.04 29L132.04 26.35L132.48 26.07Q132.19 26.96 131.5 27.68Q130.82 28.4 129.88 28.82Q128.95 29.24 127.87 29.24ZM137.97 29L137.97 16.4L140.44 16.4L140.44 18.99L140.01 19.27Q140.25 18.44 140.95 17.73Q141.64 17.02 142.6 16.58Q143.56 16.13 144.57 16.13Q146.01 16.13 146.97 16.7Q147.93 17.26 148.41 18.41Q148.89 19.56 148.89 21.31L148.89 29L146.42 29L146.42 21.48Q146.42 20.41 146.13 19.7Q145.84 18.99 145.24 18.66Q144.64 18.34 143.75 18.39Q143.03 18.39 142.43 18.62Q141.83 18.84 141.39 19.25Q140.95 19.66 140.7 20.2Q140.44 20.74 140.44 21.36L140.44 29L139.22 29Q138.91 29 138.59 29Q138.28 29 137.97 29ZM153.81 29L153.81 13.18L156.28 13.18L156.28 29L153.81 29ZM151.2 18.79L151.2 16.4L159.21 16.4L159.21 18.79L151.2 18.79Z" stroke="#000000" stroke-opacity="1.000000" stroke-width="1.000000"/>
	</g>
</svg>
